<svg width="1200" height="700" viewBox="0 0 1200 700" fill="none" xmlns="http://www.w3.org/2000/svg">
  <rect width="1200" height="700" rx="60" fill="#EAF3FF"/>
  <rect x="70" y="88" width="1060" height="84" rx="24" fill="#FFFFFF" stroke="#BED8FF" stroke-width="8"/>
  <rect x="108" y="118" width="300" height="24" rx="12" fill="#2E7BFF"/>
  <rect x="898" y="110" width="188" height="38" rx="19" fill="#DDEBFF"/>
  <rect x="70" y="214" width="640" height="410" rx="34" fill="#FFFFFF" stroke="#BED8FF" stroke-width="8"/>
  <rect x="742" y="214" width="388" height="196" rx="30" fill="#0D63FF"/>
  <rect x="782" y="262" width="230" height="26" rx="13" fill="#FFFFFF" fill-opacity="0.92"/>
  <rect x="782" y="306" width="160" height="20" rx="10" fill="#FFFFFF" fill-opacity="0.72"/>
  <rect x="742" y="428" width="388" height="196" rx="30" fill="#FFFFFF" stroke="#BED8FF" stroke-width="8"/>
  <rect x="782" y="474" width="230" height="34" rx="17" fill="#2E7BFF"/>
  <rect x="782" y="530" width="160" height="20" rx="10" fill="#D3E4FF"/>
  <rect x="116" y="256" width="548" height="42" rx="16" fill="#DDEBFF"/>
  <rect x="116" y="320" width="260" height="254" rx="20" fill="#F1F7FF" stroke="#CEE1FF" stroke-width="6"/>
  <rect x="404" y="320" width="260" height="254" rx="20" fill="#F1F7FF" stroke="#CEE1FF" stroke-width="6"/>
  <circle cx="246" cy="446" r="78" fill="#2E7BFF" fill-opacity="0.2"/>
  <circle cx="534" cy="446" r="78" fill="#2E7BFF" fill-opacity="0.2"/>
</svg>
