<svg width="1200" height="700" viewBox="0 0 1200 700" fill="none" xmlns="http://www.w3.org/2000/svg">
  <rect width="1200" height="700" rx="60" fill="#EAF4FF"/>
  <rect x="80" y="88" width="1040" height="524" rx="38" fill="#FFFFFF" stroke="#BED8FF" stroke-width="8"/>
  <rect x="136" y="136" width="512" height="440" rx="30" fill="#F3F8FF" stroke="#CEE1FF" stroke-width="6"/>
  <rect x="680" y="136" width="384" height="206" rx="26" fill="#0D63FF"/>
  <rect x="720" y="186" width="214" height="24" rx="12" fill="#FFFFFF"/>
  <rect x="720" y="228" width="162" height="20" rx="10" fill="#FFFFFF" fill-opacity="0.72"/>
  <rect x="680" y="370" width="384" height="206" rx="26" fill="#F3F8FF" stroke="#CEE1FF" stroke-width="6"/>
  <path d="M742 492C798 442 852 548 906 498C944 462 980 462 1002 486" stroke="#0D63FF" stroke-width="12" stroke-linecap="round"/>
  <circle cx="742" cy="492" r="11" fill="#0D63FF"/>
  <circle cx="906" cy="498" r="11" fill="#0D63FF"/>
  <circle cx="1002" cy="486" r="11" fill="#0D63FF"/>
  <rect x="182" y="184" width="420" height="48" rx="16" fill="#DDEBFF"/>
  <rect x="182" y="256" width="196" height="270" rx="22" fill="#FFFFFF" stroke="#CEE1FF" stroke-width="6"/>
  <rect x="406" y="256" width="196" height="270" rx="22" fill="#FFFFFF" stroke="#CEE1FF" stroke-width="6"/>
  <circle cx="280" cy="380" r="58" fill="#2E7BFF" fill-opacity="0.2"/>
  <circle cx="504" cy="380" r="58" fill="#2E7BFF" fill-opacity="0.2"/>
</svg>
